<?xml version="1.0" encoding="UTF-8"?>
<!DOCTYPE svg  PUBLIC '-//W3C//DTD SVG 1.1//EN'  'http://www.w3.org/Graphics/SVG/1.1/DTD/svg11.dtd'>
<svg width="800px" height="800px" fill="#000000" version="1.1" viewBox="0 0 25 25" xmlns="http://www.w3.org/2000/svg">
<g fill="none" fill-rule="evenodd">
<g transform="translate(-469 -1041)" fill="#fff">
<path d="m487.15 1053.5 5.665-5.66c1.563-1.56 1.563-4.1 0-5.66-1.565-1.57-4.101-1.57-5.665 0l-5.664 5.66-5.664-5.66c-1.563-1.57-4.099-1.57-5.664 0-1.563 1.56-1.563 4.1 0 5.66l5.664 5.66-5.664 5.67c-1.563 1.56-1.563 4.1 0 5.66 1.565 1.57 4.101 1.57 5.664 0l5.664-5.66 5.664 5.66c1.564 1.57 4.1 1.57 5.665 0 1.563-1.56 1.563-4.1 0-5.66l-5.665-5.67"></path>
</g>
</g>
</svg>
